# xmcd
#
# Track frame offsets: 
#        150
#        17522
#        34541
#        45297
#        59194
#        74085
#        86715
#        99179
#        115984
#        130265
#        150121
#        157749
#        172514
#        190757
#        205057
#
# Disc length: 2896 seconds
#
# Revision: 0
# Processed by: cddbd v1.5.2PL0 Copyright (c) Steve Scherf et al.
# Submitted via: ExactAudioCopyFreeDBPlugin 1.0
#
DISCID=af0b4e0f
DTITLE=Linda Lewis - Fathoms Deep
DYEAR=1974
DGENRE=R&B
TTITLE0=Fathoms Deep
TTITLE1=I'm In Love Again
TTITLE2=Red Light Ladies
TTITLE3=If I Could
TTITLE4=Kingman-Tinman
TTITLE5=Lullabye
TTITLE6=Wise Eyes
TTITLE7=On The Stage
TTITLE8=Goodbye Joanna
TTITLE9=Guffer
TTITLE10=Moles
TTITLE11=Sideuffleway S
TTITLE12=Safe and Sound
TTITLE13=Play Around
TTITLE14=Red Light Ladies - Acoustic Demo Version
EXTD=
EXTT0=
EXTT1=
EXTT2=
EXTT3=
EXTT4=
EXTT5=
EXTT6=
EXTT7=
EXTT8=
EXTT9=
EXTT10=
EXTT11=
EXTT12=
EXTT13=
EXTT14=
PLAYORDER=
